<svg width="34" height="35" viewBox="0 0 34 35" fill="none" xmlns="http://www.w3.org/2000/svg">
<g clip-path="url(#clip0_19_204)">
<path d="M7.0835 10.6999C7.0835 9.87333 7.41186 9.08059 7.99635 8.4961C8.58084 7.91162 9.37357 7.58325 10.2002 7.58325H11.6168C12.4398 7.58278 13.2291 7.25686 13.8127 6.67659L14.8043 5.68492C15.094 5.39365 15.4383 5.16251 15.8176 5.00479C16.1969 4.84707 16.6036 4.76587 17.0143 4.76587C17.4251 4.76587 17.8318 4.84707 18.2111 5.00479C18.5903 5.16251 18.9347 5.39365 19.2243 5.68492L20.216 6.67659C20.7997 7.25742 21.5902 7.58325 22.4118 7.58325H23.8285C24.6551 7.58325 25.4478 7.91162 26.0323 8.4961C26.6168 9.08059 26.9452 9.87333 26.9452 10.6999V12.1166C26.9452 12.9383 27.271 13.7288 27.8518 14.3124L28.8435 15.3041C29.1348 15.5937 29.3659 15.9381 29.5236 16.3173C29.6814 16.6966 29.7626 17.1033 29.7626 17.5141C29.7626 17.9248 29.6814 18.3316 29.5236 18.7108C29.3659 19.0901 29.1348 19.4345 28.8435 19.7241L27.8518 20.7158C27.2716 21.2993 26.9456 22.0886 26.9452 22.9116V24.3283C26.9452 25.1548 26.6168 25.9476 26.0323 26.5321C25.4478 27.1166 24.6551 27.4449 23.8285 27.4449H22.4118C21.5889 27.4454 20.7995 27.7713 20.216 28.3516L19.2243 29.3433C18.9347 29.6345 18.5903 29.8657 18.2111 30.0234C17.8318 30.1811 17.4251 30.2623 17.0143 30.2623C16.6036 30.2623 16.1969 30.1811 15.8176 30.0234C15.4383 29.8657 15.094 29.6345 14.8043 29.3433L13.8127 28.3516C13.2291 27.7713 12.4398 27.4454 11.6168 27.4449H10.2002C9.37357 27.4449 8.58084 27.1166 7.99635 26.5321C7.41186 25.9476 7.0835 25.1548 7.0835 24.3283V22.9116C7.08303 22.0886 6.7571 21.2993 6.17683 20.7158L5.18517 19.7241C4.8939 19.4345 4.66276 19.0901 4.50503 18.7108C4.34731 18.3316 4.26611 17.9248 4.26611 17.5141C4.26611 17.1033 4.34731 16.6966 4.50503 16.3173C4.66276 15.9381 4.8939 15.5937 5.18517 15.3041L6.17683 14.3124C6.7571 13.7289 7.08303 12.9395 7.0835 12.1166V10.6999Z" stroke="#8FCDDC" stroke-linecap="round" stroke-linejoin="round"/>
<path d="M12.75 17.5001L15.5833 20.3334L21.25 14.6667" stroke="white" stroke-width="2.83333" stroke-linecap="round" stroke-linejoin="round"/>
</g>
<defs>
<clipPath id="clip0_19_204">
<rect width="34" height="34" fill="white" transform="translate(0 0.5)"/>
</clipPath>
</defs>
</svg>
