<svg width="108" height="45" viewBox="0 0 108 45" fill="none" xmlns="http://www.w3.org/2000/svg">
<rect x="0.75" y="1" width="43" height="43" rx="10" stroke="white" stroke-width="1.5"/>
<path d="M23.9619 21.0451L30.6624 13H29.0743L23.2578 19.9852L18.6099 13H13.25L20.2774 23.564L13.25 32H14.8381L20.9815 24.6226L25.8901 32H31.25L23.9619 21.0451ZM21.7875 23.6563L21.0755 22.6045L15.4098 14.235H17.8489L22.4201 20.9895L23.1321 22.0413L29.0756 30.822H26.6365L21.7875 23.6563Z" fill="url(#paint0_linear_1_619)"/>
<rect x="65.5" y="1.75" width="41.5" height="41.5" rx="9.25" stroke="white" stroke-width="1.5"/>
<path d="M94.7745 14.4557C94.5897 14.2992 94.3668 14.1968 94.1296 14.1591C93.8924 14.1215 93.6496 14.1502 93.4271 14.2421L78.0699 20.5746C77.8217 20.6787 77.6104 20.8575 77.4641 21.0872C77.3177 21.3169 77.2432 21.5867 77.2505 21.8606C77.2577 22.1346 77.3464 22.3998 77.5047 22.6211C77.663 22.8423 77.8834 23.0092 78.1367 23.0995L81.4504 24.2745L83.2461 30.3382C83.2495 30.3504 83.2606 30.3583 83.2658 30.3697C83.2843 30.4181 83.3113 30.4626 83.3455 30.501C83.3975 30.5603 83.4645 30.6036 83.5392 30.6262C83.5478 30.6297 83.5538 30.6376 83.5623 30.6394H83.5675L83.5701 30.6402C83.6364 30.6548 83.7053 30.6512 83.7698 30.6297C83.7766 30.628 83.7835 30.628 83.7912 30.6253C83.8531 30.6031 83.9092 30.5666 83.9549 30.5185C83.9601 30.5124 83.9686 30.5115 83.9738 30.5063L86.5563 27.5944L90.3251 30.5754C90.554 30.7584 90.836 30.8574 91.1265 30.8574C91.7557 30.8574 92.2982 30.4073 92.4277 29.7796L95.2236 15.7558C95.271 15.5178 95.2543 15.271 95.1752 15.0419C95.0961 14.8128 94.9576 14.6099 94.7745 14.4548M84.1829 25.4257L83.5769 28.4348L82.3127 24.1641L88.5826 20.8285L84.2995 25.2042C84.2402 25.2648 84.1996 25.3418 84.1829 25.4257ZM91.5877 29.6036C91.5716 29.683 91.5358 29.7569 91.4837 29.818C91.4316 29.8792 91.365 29.9257 91.2902 29.953C91.2173 29.9816 91.1384 29.9904 91.0611 29.9784C90.9839 29.9665 90.911 29.9341 90.8497 29.8847L86.7672 26.6549C86.6818 26.5876 86.5748 26.5557 86.4674 26.5654C86.36 26.5752 86.2601 26.6259 86.1877 26.7075L84.3903 28.7308L84.9955 25.7304L91.1574 19.4356C91.2295 19.3616 91.2735 19.2637 91.2812 19.1596C91.2889 19.0555 91.26 18.952 91.1995 18.8678C91.1391 18.7836 91.0512 18.7242 90.9517 18.7003C90.8522 18.6765 90.7476 18.6898 90.6568 18.7378L81.7744 23.4637L78.417 22.2713C78.328 22.2413 78.2503 22.1837 78.1949 22.1065C78.1394 22.0292 78.1089 21.9363 78.1076 21.8406C78.1033 21.744 78.1286 21.6484 78.1799 21.5671C78.2312 21.4859 78.3059 21.4229 78.3939 21.387L93.7485 15.0545C93.8272 15.0204 93.9136 15.0094 93.9981 15.0227C94.0826 15.036 94.1618 15.0731 94.2268 15.1298C94.2914 15.1832 94.3402 15.2539 94.3677 15.334C94.3953 15.4141 94.4005 15.5004 94.3828 15.5833L91.5877 29.6036Z" fill="url(#paint1_linear_1_619)"/>
<defs>
<linearGradient id="paint0_linear_1_619" x1="16.6731" y1="12.8068" x2="21.6278" y2="36.6665" gradientUnits="userSpaceOnUse">
<stop stop-color="#FF981F"/>
<stop offset="1" stop-color="#B728CE"/>
</linearGradient>
<linearGradient id="paint1_linear_1_619" x1="80.6731" y1="13.9731" x2="84.5436" y2="35.1606" gradientUnits="userSpaceOnUse">
<stop stop-color="#FF981F"/>
<stop offset="1" stop-color="#B728CE"/>
</linearGradient>
</defs>
</svg>
