<svg width="794" height="480" viewBox="0 0 794 480" fill="none" xmlns="http://www.w3.org/2000/svg">
<path d="M748.543 141.141L793.58 284.034L687.766 317.45C685.374 318.205 682.781 317.979 680.556 316.82C678.331 315.661 676.657 313.665 675.903 311.271L636.556 186.432C635.801 184.038 636.028 181.442 637.186 179.215C638.343 176.988 640.337 175.312 642.729 174.557L748.543 141.141Z" fill="url(#paint0_linear_31_581)"/>
<path d="M676.557 313.052L636.087 184.65L575.918 203.652L616.387 332.054L676.557 313.052Z" fill="#F9F6F5"/>
<path d="M603.723 291.943L588.549 243.799L526.167 263.499L541.341 311.644L603.723 291.943Z" fill="#F9F6F5"/>
<path d="M533.618 287.173C291.156 363.757 201.484 409.874 136.525 348.536C49.955 266.778 177.503 167.199 121.395 58.6332C100.364 17.9684 53.3593 3 0 3" stroke="url(#paint1_linear_31_581)" stroke-width="5" stroke-miterlimit="10"/>
<path d="M766.145 273.265L697.68 294.898C696.503 295.269 695.264 295.405 694.035 295.296C692.805 295.187 691.609 294.837 690.515 294.265C689.421 293.693 688.451 292.91 687.659 291.962C686.868 291.013 686.272 289.918 685.904 288.739L680.356 271.069" stroke="#222222" stroke-width="2" stroke-linecap="round" stroke-linejoin="round"/>
<path d="M628.031 290.353L611.135 236.765" stroke="#222222" stroke-width="2" stroke-linecap="round" stroke-linejoin="round"/>
<path d="M643.085 285.608L626.19 231.994" stroke="#222222" stroke-width="2" stroke-linecap="round" stroke-linejoin="round"/>
<path d="M675.842 310.875L636.73 186.786" stroke="#222222" stroke-width="2" stroke-linecap="round" stroke-linejoin="round"/>
<path d="M616.355 332.078L575.882 203.673" stroke="#222222" stroke-width="2" stroke-linecap="round" stroke-linejoin="round"/>
<path d="M541.309 311.658L526.154 263.496" stroke="#222222" stroke-width="2" stroke-linecap="round" stroke-linejoin="round"/>
<path d="M443.33 392.631L517.028 319.079" stroke="#F9F6F5" stroke-width="14" stroke-linecap="round" stroke-linejoin="round"/>
<path d="M553.717 472.03L581.665 375.997" stroke="#F9F6F5" stroke-width="14" stroke-linecap="round" stroke-linejoin="round"/>
<path d="M504.399 150.135L429.093 94.9996" stroke="#F9F6F5" stroke-width="14" stroke-linecap="round" stroke-linejoin="round"/>
<path d="M376.676 251.577L490.572 246.315" stroke="#F9F6F5" stroke-width="14" stroke-linecap="round" stroke-linejoin="round"/>
<defs>
<linearGradient id="paint0_linear_31_581" x1="758.275" y1="167.946" x2="618.801" y2="237.425" gradientUnits="userSpaceOnUse">
<stop stop-color="#FF981F"/>
<stop offset="1" stop-color="#B728CE"/>
</linearGradient>
<linearGradient id="paint1_linear_31_581" x1="101.478" y1="-0.801407" x2="167.747" y2="479.89" gradientUnits="userSpaceOnUse">
<stop stop-color="#FF981F"/>
<stop offset="1" stop-color="#B728CE"/>
</linearGradient>
</defs>
</svg>
