<svg width="868" height="497" viewBox="0 0 868 497" fill="none" xmlns="http://www.w3.org/2000/svg">
<path d="M23.1618 351.247L23.0859 351.006C22.647 349.613 22.7788 348.103 23.4521 346.807C24.1254 345.511 25.2852 344.537 26.6763 344.097L90.4853 323.94L93.8709 334.685L30.0619 354.842C28.6708 355.282 27.1623 355.15 25.8683 354.475C24.5743 353.801 23.6007 352.64 23.1618 351.247Z" fill="#A6A6A6"/>
<path d="M69.0772 255.951L72.44 266.624L8.63105 286.781C7.94223 286.998 7.21736 287.078 6.49781 287.015C5.77827 286.952 5.07814 286.748 4.43741 286.414C3.79668 286.08 3.2279 285.623 2.76353 285.07C2.29916 284.516 1.94831 283.876 1.73099 283.186L1.65508 282.945C1.43777 282.255 1.35825 281.529 1.42107 280.809C1.4839 280.088 1.68783 279.387 2.02123 278.746C2.35463 278.104 2.81097 277.535 3.36419 277.07C3.91741 276.605 4.55668 276.254 5.24549 276.036L69.0544 255.879L69.0772 255.951Z" fill="#A6A6A6"/>
<path d="M242.91 313.631L203.187 187.559L230.568 178.909C234.732 177.587 239.114 177.1 243.466 177.475C247.818 177.851 252.053 179.082 255.929 181.097C259.805 183.113 263.246 185.874 266.055 189.223C268.865 192.572 270.987 196.442 272.301 200.613L292.038 263.251C293.348 267.421 293.825 271.808 293.441 276.163C293.057 280.517 291.82 284.753 289.801 288.628C287.781 292.504 285.019 295.943 281.671 298.749C278.324 301.554 274.457 303.672 270.291 304.981L242.91 313.631Z" fill="#F9F6F5"/>
<path d="M274.677 208.287L289.571 255.555L350.805 236.211L335.912 188.943L274.677 208.287Z" fill="#F9F6F5"/>
<path d="M169.159 180.595L219.031 338.877L247.976 329.733L198.104 171.451L169.159 180.595Z" fill="#F9F6F5"/>
<path d="M343.473 212.986C582.298 137.528 670.627 92.0812 734.534 152.508C819.811 233.044 694.167 331.188 749.445 438.174C770.159 478.24 814.058 493.751 867.167 493.751" stroke="url(#paint0_linear_31_561)" stroke-width="5" stroke-miterlimit="10"/>
<path d="M250.804 209.854L267.38 262.475" stroke="#222222" stroke-width="2" stroke-linecap="round" stroke-linejoin="round"/>
<path d="M236.045 214.527L252.621 267.149" stroke="#222222" stroke-width="2" stroke-linecap="round" stroke-linejoin="round"/>
<path d="M59.3596 225.173L103.562 365.459L216.19 329.88L171.988 189.594L59.3596 225.173Z" fill="url(#paint1_linear_31_561)"/>
<path d="M78.7062 286.561L84.2324 304.1L140.559 286.306L135.032 268.768L78.7062 286.561Z" fill="white"/>
<path d="M150.416 215.538L162.576 211.673" stroke="#222222" stroke-width="2" stroke-linecap="round" stroke-linejoin="round"/>
<path d="M86.5588 235.697L139.112 219.1" stroke="#222222" stroke-width="2" stroke-linecap="round" stroke-linejoin="round"/>
<path d="M219.04 338.894L169.161 180.601" stroke="#222222" stroke-width="2" stroke-linecap="round" stroke-linejoin="round"/>
<path d="M198.125 171.455L247.979 329.748" stroke="#222222" stroke-width="2" stroke-linecap="round" stroke-linejoin="round"/>
<path d="M290.92 255.604L276.034 208.338" stroke="#222222" stroke-width="2" stroke-miterlimit="10"/>
<path d="M103.564 365.47L59.3613 225.163" stroke="#222222" stroke-width="2" stroke-linecap="round" stroke-linejoin="round"/>
<path d="M439.993 86.3994L366.294 159.952" stroke="#F9F6F5" stroke-width="14" stroke-linecap="round" stroke-linejoin="round"/>
<path d="M329.606 7L301.658 103.033" stroke="#F9F6F5" stroke-width="14" stroke-linecap="round" stroke-linejoin="round"/>
<path d="M378.924 328.896L454.23 384.031" stroke="#F9F6F5" stroke-width="14" stroke-linecap="round" stroke-linejoin="round"/>
<path d="M506.647 227.453L392.751 232.715" stroke="#F9F6F5" stroke-width="14" stroke-linecap="round" stroke-linejoin="round"/>
<defs>
<linearGradient id="paint0_linear_31_561" x1="443.064" y1="120.782" x2="508.88" y2="595.298" gradientUnits="userSpaceOnUse">
<stop stop-color="#FF981F"/>
<stop offset="1" stop-color="#B728CE"/>
</linearGradient>
<linearGradient id="paint1_linear_31_561" x1="94.0107" y1="339.143" x2="230.834" y2="271.022" gradientUnits="userSpaceOnUse">
<stop stop-color="#FF981F"/>
<stop offset="1" stop-color="#B728CE"/>
</linearGradient>
</defs>
</svg>
