<svg width="55" height="56" viewBox="0 0 55 56" fill="none" xmlns="http://www.w3.org/2000/svg">
<path fill-rule="evenodd" clip-rule="evenodd" d="M27.5 55.5C42.6878 55.5 55 43.1878 55 28C55 12.8122 42.6878 0.5 27.5 0.5C12.3122 0.5 0 12.8122 0 28C0 43.1878 12.3122 55.5 27.5 55.5ZM40.4903 19.4735C40.8438 19.0492 40.7865 18.4187 40.3622 18.0651C39.9379 17.7115 39.3074 17.7689 38.9538 18.1931L24.3771 35.6853L15.9847 27.2929C15.5942 26.9024 14.961 26.9024 14.5705 27.2929C14.18 27.6834 14.18 28.3166 14.5705 28.7071L23.7372 37.8738C23.9358 38.0724 24.2089 38.1784 24.4896 38.1656C24.7702 38.1529 25.0326 38.0227 25.2125 37.8069L40.4903 19.4735Z" fill="white"/>
</svg>
